Coordinates
version=1
nRows=15
nColumns=34
inDegrees=yes

Units are S.I. units (second, meters, Newtons, ...)
If the header above contains a line with 'inDegrees', this indicates whether rotational values are in degrees (yes) or radians (no).

endheader
time	pelvis_tilt	pelvis_list	pelvis_rotation	pelvis_tx	pelvis_ty	pelvis_tz	hip_flexion_r	hip_adduction_r	hip_rotation_r	knee_angle_r	ankle_angle_r	subtalar_angle_r	mtp_angle_r	hip_flexion_l	hip_adduction_l	hip_rotation_l	knee_angle_l	ankle_angle_l	subtalar_angle_l	mtp_angle_l	lumbar_extension	lumbar_bending	lumbar_rotation	arm_flex_r	arm_add_r	arm_rot_r	elbow_flex_r	pro_sup_r	arm_flex_l	arm_add_l	arm_rot_l	elbow_flex_l	pro_sup_l
      6.61666670	     -5.87042217	     -0.06308035	      0.98604377	     -0.53602535	      0.96374334	     -0.16661537	      9.79568742	     -1.13942699	     -7.60594521	      5.16543295	      3.29207436	     -1.16353509	      0.00000000	     12.22857756	     -1.75926196	     -8.28170058	     10.54450334	      7.74631312	      5.19254443	      0.00000000	    -13.06907770	      1.29317919	     -1.66600195	      1.33183384	     -5.71206432	     -0.73222524	     25.86455158	     98.81251321	     -1.18673096	     -9.05716701	      8.95993362	     26.98733336	     99.00678830
      6.63333330	     -5.45621693	      0.08051784	      0.92390032	     -0.53024897	      0.96613822	     -0.16546192	      7.86373884	     -0.99497192	     -7.28483381	      2.46345710	      1.93875552	     -0.72179208	      0.00000000	     10.22005091	     -1.29692769	     -7.58747689	      7.40342502	      6.55639391	      5.24761922	      0.00000000	    -12.76781630	      1.09149714	     -1.79095217	      1.14176464	     -5.67597236	     -0.30674661	     25.78985044	     98.75864676	     -1.65338066	     -9.04868713	      8.95068447	     27.05440327	     98.89905305
      6.65000000	     -5.52660748	      0.22795204	      0.83410058	     -0.52422268	      0.96990255	     -0.16440890	      6.47390836	     -0.88298185	     -6.97968012	      0.14623817	      1.08619934	     -0.06345747	      0.00000000	      8.88455881	     -0.97464999	     -7.29988165	      5.06781770	      5.72852043	      5.46621572	      0.00000000	    -11.67719706	      0.81506469	     -1.87261147	      0.64528306	     -5.55688307	     -0.08267984	     25.73278512	     98.72790631	     -2.27128266	     -9.01429091	      8.93005792	     27.00856001	     98.82782125
      6.66666670	     -5.62329766	      0.39147977	      0.42389987	     -0.51743092	      0.96470482	     -0.16255689	      6.07803147	     -0.90749149	     -6.64931760	      0.00000000	      1.80273448	      0.37210649	      0.00000000	      7.61693748	     -0.74441288	     -7.33649854	      3.10066523	      5.11484575	      5.45519715	      0.00000000	    -10.75669528	      0.53918501	     -1.67232578	      0.21201951	     -5.48691357	      0.10169410	     25.65262140	     98.70107467	     -2.88278753	     -8.97033590	      8.91446598	     27.01679305	     98.76200991
      6.68333330	     -5.80729242	      0.50617543	     -0.03093845	     -0.51964465	      0.96452370	     -0.16158702	      5.98804670	     -0.90241644	     -6.40224358	      0.00000000	      2.54883112	      0.85711042	      0.00000000	      6.71851822	     -0.56602444	     -7.45465582	      1.50705717	      4.59707046	      5.26926945	      0.00000000	     -9.86536099	      0.36991457	     -1.42974022	     -0.17167426	     -5.49462961	      0.25758435	     25.61889431	     98.67136073	     -3.29709840	     -8.88427171	      8.91024597	     27.08992310	     98.70159502
      6.70000000	     -5.91881428	      0.54896816	     -0.32337402	     -0.51777638	      0.96461654	     -0.16066189	      5.89636335	     -0.84079242	     -6.20850451	      0.00000000	      3.12062083	      1.27876634	      0.00000000	      5.90817640	     -0.46127647	     -7.47110785	      0.13698905	      4.03034845	      5.13908214	      0.00000000	     -9.13556500	      0.27928991	     -1.24606180	     -0.56592160	     -5.51457527	      0.39166393	     25.55058351	     98.63118972	     -3.61506803	     -8.79350864	      8.92813942	     27.16611111	     98.64549516
      6.71666670	     -5.99652989	      0.54747315	     -0.44868674	     -0.51825143	      0.96105578	     -0.15947092	      5.87799875	     -0.73275072	     -5.99395709	      0.00000000	      3.81599713	      1.48660663	      0.00000000	      5.73033232	     -0.48376774	     -7.45399383	      0.00000000	      4.25144306	      4.86439559	      0.00000000	     -8.61484368	      0.18868341	     -1.14056018	     -0.81614687	     -5.52361651	      0.49472567	     25.51300681	     98.59223211	     -3.77514843	     -8.76499204	      8.95622578	     27.22770748	     98.60317406
      6.73333330	     -6.04041197	      0.49823147	     -0.47149445	     -0.51629616	      0.96090701	     -0.15885881	      5.80408183	     -0.60771810	     -5.71308678	      0.00000000	      4.39684162	      1.57383882	      0.00000000	      5.60717510	     -0.55748476	     -7.29423879	      0.00000000	      4.50910578	      4.76333907	      0.00000000	     -8.10699318	      0.22641682	     -1.11284575	     -1.07811461	     -5.54085293	      0.57356591	     25.43442644	     98.54907920	     -3.90840486	     -8.71952906	      8.99558106	     27.27113100	     98.56654269
      6.75000000	     -5.99404045	      0.48266865	     -0.56779437	     -0.51790668	      0.95809929	     -0.15797528	      5.74858482	     -0.51926029	     -5.68555507	      0.00000000	      4.46090108	      1.55291235	      0.00000000	      5.49989300	     -0.59902978	     -7.26475401	      0.00000000	      4.51869732	      4.74979862	      0.00000000	     -7.94964904	      0.19068185	     -1.13758814	     -1.12855518	     -5.54345054	      0.58177366	     25.42254410	     98.54421560	     -3.90994872	     -8.70299839	      9.00182953	     27.28468365	     98.56277607
      6.76666670	     -5.86747214	      0.37753343	     -0.64473990	     -0.51370651	      0.95382299	     -0.15816638	      5.43500730	     -0.33653559	     -5.09793403	      0.00000000	      5.16371344	      1.33774657	      0.00000000	      5.17202212	     -0.73944543	     -7.08283982	      0.00000000	      4.94963047	      4.49826321	      0.00000000	     -7.54396813	      0.30533277	     -1.04517600	     -1.37644771	     -5.57177968	      0.64874350	     25.22645753	     98.50283908	     -4.14460964	     -8.61015991	      9.05243299	     27.21603498	     98.52943540
      6.78333330	     -5.76160142	      0.34220371	     -0.71729149	     -0.51684660	      0.95596027	     -0.15917763	      5.29389784	     -0.29898863	     -5.02368194	      0.00000000	      5.18145326	      1.26402808	      0.00000000	      4.97974143	     -0.77493457	     -7.06988421	      0.00000000	      4.97187325	      4.43647874	      0.00000000	     -7.33008847	      0.32892502	     -1.02632183	     -1.35398704	     -5.60535058	      0.65422954	     25.20580783	     98.49430141	     -4.14869106	     -8.52082025	      9.06792178	     27.19875910	     98.52273113
      6.80000000	     -5.11508397	      0.27302621	     -0.91223924	     -0.52726113	      0.96195700	     -0.15779635	      4.77865240	     -0.16763732	     -3.87137596	      0.00000000	      4.59859310	     -0.39468347	      0.00000000	      4.44896469	     -0.82135094	     -6.57943875	      0.00000000	      4.66098518	      3.31350618	      0.00000000	     -8.34861570	      0.39997300	     -0.75983069	     -0.75391293	     -5.64320393	      0.90664767	     24.57198850	     98.36542062	     -3.42656393	     -8.30098088	      9.10827618	     26.29807862	     98.36493417
      6.81666670	     -4.96377627	      0.22442633	     -0.94498473	     -0.52372969	      0.96046173	     -0.15744470	      4.76757362	     -0.07271778	     -3.58472504	      0.00000000	      4.31630597	     -0.38504753	      0.00000000	      4.39859775	     -0.88697324	     -6.31297304	      0.00000000	      4.47685901	      3.39974276	      0.00000000	     -8.55996249	      0.43770942	     -0.78919911	     -0.65109964	     -5.58333432	      0.93092410	     24.55697178	     98.35408005	     -3.38618680	     -8.18256535	      9.14100095	     26.22542071	     98.35533293
      6.83333330	     -4.07257801	      0.10991405	     -0.82552789	     -0.52436051	      0.95959466	     -0.15677454	      4.02263360	      0.08566587	     -2.62114813	      0.00000000	      3.14175242	     -2.49854929	      0.00000000	      4.00835050	     -1.07834552	     -5.77759318	      0.87035994	      4.53906574	      2.48333651	      0.00000000	    -10.10583733	      0.61233482	     -1.05191345	      0.16594280	     -5.57565362	      1.13167582	     24.26742579	     98.23517459	     -2.65405388	     -8.09419437	      9.26183662	     25.41042481	     98.19432556
      6.85000000	     -3.49129456	     -0.06319634	     -0.63994754	     -0.52417019	      0.95789111	     -0.15778855	      3.58617163	      0.26962550	     -1.99313484	      0.00000000	      2.16533440	     -3.92494222	      0.00000000	      4.26789658	     -1.37542251	     -5.39503204	      2.55837467	      5.10489046	      1.80328780	      0.00000000	    -11.17109365	      0.88139983	     -1.33660410	      0.60189773	     -5.56222126	      1.29270589	     24.15984339	     98.11702477	     -2.21521921	     -8.00370424	      9.42984554	     25.07232769	     98.02255139
